<?xml version="1.0" encoding="UTF-8" standalone="no"?>
<!DOCTYPE svg PUBLIC "-//W3C//DTD SVG 1.1//EN" "http://www.w3.org/Graphics/SVG/1.1/DTD/svg11.dtd">
<svg xmlns="http://www.w3.org/2000/svg" version="1.1" viewBox="0.00 0.00 1024.00 285.00">
<path fill="#f93465" d="
  M 27.90 0.00
  L 97.43 0.00
  Q 115.95 18.71 141.76 18.98
  Q 168.63 19.26 187.90 0.00
  L 257.50 0.00
  Q 272.76 2.09 280.55 14.37
  C 283.91 19.67 285.16 25.25 285.16 31.46
  Q 285.12 142.97 285.14 254.49
  C 285.14 270.17 274.16 282.37 258.88 285.00
  L 187.71 285.00
  Q 162.94 260.95 129.25 267.52
  Q 111.35 271.02 97.60 285.00
  L 26.27 285.00
  Q 7.58 281.48 1.33 263.75
  Q 0.69 261.95 0.00 257.12
  L 0.00 27.76
  Q 1.25 16.84 8.55 9.29
  Q 16.33 1.26 27.90 0.00
  Z
  M 33.4802 42.6480
  A 2.84 2.84 0.0 0 0 30.6451 39.8031
  L 15.6651 39.7769
  A 2.84 2.84 0.0 0 0 12.8202 42.6120
  L 12.8198 42.8120
  A 2.84 2.84 0.0 0 0 15.6549 45.6569
  L 30.6349 45.6831
  A 2.84 2.84 0.0 0 0 33.4798 42.8480
  L 33.4802 42.6480
  Z
  M 63.1996 42.5839
  A 2.84 2.84 0.0 0 0 60.3497 39.7539
  L 45.3697 39.8062
  A 2.84 2.84 0.0 0 0 42.5397 42.6561
  L 42.5404 42.8761
  A 2.84 2.84 0.0 0 0 45.3903 45.7061
  L 60.3703 45.6538
  A 2.84 2.84 0.0 0 0 63.2003 42.8039
  L 63.1996 42.5839
  Z
  M 92.9198 42.6120
  A 2.84 2.84 0.0 0 0 90.0749 39.7769
  L 75.0949 39.8031
  A 2.84 2.84 0.0 0 0 72.2598 42.6480
  L 72.2602 42.8480
  A 2.84 2.84 0.0 0 0 75.1051 45.6831
  L 90.0851 45.6569
  A 2.84 2.84 0.0 0 0 92.9202 42.8120
  L 92.9198 42.6120
  Z
  M 122.63 42.63
  A 2.84 2.84 0.0 0 0 119.79 39.79
  L 104.79 39.79
  A 2.84 2.84 0.0 0 0 101.95 42.63
  L 101.95 42.83
  A 2.84 2.84 0.0 0 0 104.79 45.67
  L 119.79 45.67
  A 2.84 2.84 0.0 0 0 122.63 42.83
  L 122.63 42.63
  Z
  M 152.32 42.64
  A 2.85 2.85 0.0 0 0 149.47 39.79
  L 134.49 39.79
  A 2.85 2.85 0.0 0 0 131.64 42.64
  L 131.64 42.82
  A 2.85 2.85 0.0 0 0 134.49 45.67
  L 149.47 45.67
  A 2.85 2.85 0.0 0 0 152.32 42.82
  L 152.32 42.64
  Z
  M 182.0102 42.6380
  A 2.84 2.84 0.0 0 0 179.1751 39.7931
  L 164.1952 39.7669
  A 2.84 2.84 0.0 0 0 161.3502 42.6020
  L 161.3498 42.8220
  A 2.84 2.84 0.0 0 0 164.1849 45.6669
  L 179.1648 45.6931
  A 2.84 2.84 0.0 0 0 182.0098 42.8580
  L 182.0102 42.6380
  Z
  M 211.7202 42.6480
  A 2.85 2.85 0.0 0 0 208.8751 39.7931
  L 193.9152 39.7669
  A 2.85 2.85 0.0 0 0 191.0602 42.6120
  L 191.0598 42.8120
  A 2.85 2.85 0.0 0 0 193.9049 45.6669
  L 208.8648 45.6931
  A 2.85 2.85 0.0 0 0 211.7198 42.8480
  L 211.7202 42.6480
  Z
  M 241.4398 42.6120
  A 2.84 2.84 0.0 0 0 238.5949 39.7769
  L 223.6149 39.8031
  A 2.84 2.84 0.0 0 0 220.7798 42.6480
  L 220.7802 42.8480
  A 2.84 2.84 0.0 0 0 223.6251 45.6831
  L 238.6051 45.6569
  A 2.84 2.84 0.0 0 0 241.4402 42.8120
  L 241.4398 42.6120
  Z
  M 268.82 42.62
  A 2.83 2.83 0.0 0 0 265.99 39.79
  L 253.31 39.79
  A 2.83 2.83 0.0 0 0 250.48 42.62
  L 250.48 42.84
  A 2.83 2.83 0.0 0 0 253.31 45.67
  L 265.99 45.67
  A 2.83 2.83 0.0 0 0 268.82 42.84
  L 268.82 42.62
  Z
  M 129.97 152.56
  Q 149.03 152.31 168.11 152.62
  Q 171.14 152.67 174.29 152.25
  Q 178.23 151.73 178.66 145.96
  Q 179.18 139.01 178.55 132.60
  C 178.27 129.73 176.48 127.02 173.43 127.01
  Q 152.75 126.98 129.89 127.02
  Q 129.34 127.02 129.34 126.47
  L 129.34 99.11
  A 0.30 0.30 0.0 0 1 129.64 98.81
  Q 153.52 98.82 178.57 98.81
  C 181.95 98.81 183.62 95.84 183.87 92.75
  Q 184.40 86.27 183.87 79.58
  C 183.62 76.40 181.93 73.41 178.52 73.42
  Q 142.15 73.50 106.23 73.47
  C 98.53 73.46 99.37 80.18 99.38 86.83
  Q 99.56 189.19 99.34 201.50
  Q 99.19 209.48 107.17 209.48
  Q 141.12 209.49 178.06 209.47
  C 181.13 209.46 183.29 207.83 183.76 204.61
  Q 184.59 198.97 184.11 191.03
  C 183.90 187.68 182.58 183.98 178.71 183.98
  Q 154.31 183.97 129.80 183.98
  A 0.47 0.46 90.0 0 1 129.34 183.51
  L 129.34 153.19
  Q 129.34 152.57 129.97 152.56
  Z
  M 33.4901 242.2580
  A 2.82 2.82 0.0 0 0 30.6751 239.4331
  L 15.6351 239.4069
  A 2.82 2.82 0.0 0 0 12.8102 242.2220
  L 12.8099 242.4020
  A 2.82 2.82 0.0 0 0 15.6249 245.2269
  L 30.6649 245.2531
  A 2.82 2.82 0.0 0 0 33.4898 242.4380
  L 33.4901 242.2580
  Z
  M 63.21 242.23
  A 2.81 2.81 0.0 0 0 60.40 239.42
  L 45.34 239.42
  A 2.81 2.81 0.0 0 0 42.53 242.23
  L 42.53 242.43
  A 2.81 2.81 0.0 0 0 45.34 245.24
  L 60.40 245.24
  A 2.81 2.81 0.0 0 0 63.21 242.43
  L 63.21 242.23
  Z
  M 92.9302 242.2480
  A 2.81 2.81 0.0 0 0 90.1251 239.4331
  L 75.0651 239.4069
  A 2.81 2.81 0.0 0 0 72.2502 242.2120
  L 72.2498 242.4120
  A 2.81 2.81 0.0 0 0 75.0549 245.2269
  L 90.1149 245.2531
  A 2.81 2.81 0.0 0 0 92.9298 242.4480
  L 92.9302 242.2480
  Z
  M 122.6402 242.2481
  A 2.81 2.81 0.0 0 0 119.8351 239.4332
  L 104.7551 239.4068
  A 2.81 2.81 0.0 0 0 101.9402 242.2119
  L 101.9398 242.4119
  A 2.81 2.81 0.0 0 0 104.7449 245.2268
  L 119.8249 245.2532
  A 2.81 2.81 0.0 0 0 122.6398 242.4481
  L 122.6402 242.2481
  Z
  M 152.33 242.23
  A 2.81 2.81 0.0 0 0 149.52 239.42
  L 134.44 239.42
  A 2.81 2.81 0.0 0 0 131.63 242.23
  L 131.63 242.43
  A 2.81 2.81 0.0 0 0 134.44 245.24
  L 149.52 245.24
  A 2.81 2.81 0.0 0 0 152.33 242.43
  L 152.33 242.23
  Z
  M 182.0198 242.2120
  A 2.81 2.81 0.0 0 0 179.2049 239.4069
  L 164.1449 239.4331
  A 2.81 2.81 0.0 0 0 161.3398 242.2480
  L 161.3402 242.4480
  A 2.81 2.81 0.0 0 0 164.1551 245.2531
  L 179.2151 245.2269
  A 2.81 2.81 0.0 0 0 182.0202 242.4120
  L 182.0198 242.2120
  Z
  M 211.73 242.23
  A 2.81 2.81 0.0 0 0 208.92 239.42
  L 193.86 239.42
  A 2.81 2.81 0.0 0 0 191.05 242.23
  L 191.05 242.43
  A 2.81 2.81 0.0 0 0 193.86 245.24
  L 208.92 245.24
  A 2.81 2.81 0.0 0 0 211.73 242.43
  L 211.73 242.23
  Z
  M 241.45 242.23
  A 2.81 2.81 0.0 0 0 238.64 239.42
  L 223.58 239.42
  A 2.81 2.81 0.0 0 0 220.77 242.23
  L 220.77 242.43
  A 2.81 2.81 0.0 0 0 223.58 245.24
  L 238.64 245.24
  A 2.81 2.81 0.0 0 0 241.45 242.43
  L 241.45 242.23
  Z
  M 268.8202 242.2360
  A 2.80 2.80 0.0 0 0 266.0251 239.4311
  L 253.2851 239.4089
  A 2.80 2.80 0.0 0 0 250.4802 242.2040
  L 250.4798 242.4240
  A 2.80 2.80 0.0 0 0 253.2749 245.2289
  L 266.0149 245.2511
  A 2.80 2.80 0.0 0 0 268.8198 242.4560
  L 268.8202 242.2360
  Z"
/>
<path fill="#f93465" d="
  M 422.10 185.00
  L 483.24 185.00
  A 0.33 0.33 0.0 0 1 483.57 185.33
  L 483.56 209.91
  A 0.33 0.33 0.0 0 1 483.23 210.24
  L 393.56 210.25
  A 0.33 0.33 0.0 0 1 393.23 209.92
  L 393.23 69.51
  A 0.33 0.33 0.0 0 1 393.56 69.18
  L 481.30 69.18
  A 0.33 0.33 0.0 0 1 481.63 69.51
  L 481.62 93.99
  A 0.33 0.33 0.0 0 1 481.29 94.32
  L 422.10 94.32
  A 0.33 0.33 0.0 0 0 421.77 94.65
  L 421.77 124.89
  A 0.33 0.33 0.0 0 0 422.10 125.22
  L 474.92 125.22
  A 0.33 0.33 0.0 0 1 475.25 125.55
  L 475.25 150.07
  A 0.33 0.33 0.0 0 1 474.92 150.40
  L 422.10 150.40
  A 0.33 0.33 0.0 0 0 421.77 150.73
  L 421.77 184.67
  A 0.33 0.33 0.0 0 0 422.10 185.00
  Z"
/>
<path fill="#f93465" d="
  M 850.50 104.78
  L 850.52 69.76
  A 0.23 0.23 0.0 0 1 850.75 69.53
  L 878.03 69.52
  Q 878.28 69.52 878.28 69.78
  L 878.28 104.92
  Q 878.28 105.30 878.67 105.30
  L 906.38 105.30
  Q 906.95 105.30 906.95 105.88
  L 906.95 127.27
  A 0.48 0.47 -90.0 0 1 906.48 127.75
  L 878.81 127.75
  Q 878.28 127.75 878.28 128.28
  Q 878.30 150.67 878.27 172.23
  C 878.25 181.34 881.10 188.95 891.20 188.95
  Q 897.64 188.94 905.34 185.62
  Q 905.93 185.37 906.08 185.99
  L 910.77 205.71
  Q 910.90 206.24 910.42 206.52
  C 889.88 218.39 858.41 215.79 851.88 188.37
  Q 850.48 182.47 850.49 174.75
  Q 850.51 151.50 850.51 128.27
  Q 850.51 127.75 849.98 127.75
  L 833.00 127.75
  A 0.37 0.37 0.0 0 1 832.63 127.38
  L 832.62 105.97
  Q 832.62 105.30 833.28 105.30
  L 849.97 105.30
  Q 850.50 105.30 850.50 104.78
  Z"
/>
<path fill="#f93465" d="
  M 632.57 165.32
  C 634.60 177.37 641.82 188.26 654.90 189.55
  Q 671.31 191.16 680.46 177.20
  Q 680.80 176.69 681.39 176.87
  L 704.98 184.43
  Q 705.61 184.63 705.34 185.23
  C 696.41 205.39 674.80 214.37 653.45 213.00
  C 630.80 211.55 612.90 196.86 606.72 175.13
  C 596.26 138.35 620.15 100.13 660.08 102.50
  Q 682.91 103.86 696.16 120.67
  C 705.77 132.88 708.50 148.39 707.68 164.28
  Q 707.65 164.74 707.20 164.74
  L 633.07 164.74
  Q 632.48 164.74 632.57 165.32
  Z
  M 657.53 123.84
  C 643.98 123.33 635.33 133.20 633.00 145.70
  Q 632.93 146.05 633.29 146.05
  L 678.51 146.04
  Q 679.16 146.04 679.05 145.40
  C 677.10 133.81 669.75 124.31 657.53 123.84
  Z"
/>
<path fill="#f93465" d="
  M 752.05 118.09
  C 760.85 104.08 778.70 99.70 793.76 103.92
  C 812.93 109.30 820.80 128.28 820.84 146.82
  Q 820.91 177.66 820.87 209.64
  Q 820.87 210.24 820.26 210.24
  L 793.72 210.25
  Q 793.07 210.25 793.07 209.60
  Q 793.07 178.58 793.06 150.26
  C 793.05 138.29 787.30 127.16 773.79 127.40
  C 760.89 127.63 752.95 137.74 752.93 150.23
  Q 752.88 179.86 752.92 209.61
  Q 752.92 210.24 752.29 210.24
  L 725.81 210.25
  Q 725.12 210.25 725.12 209.56
  L 725.12 105.97
  Q 725.12 105.31 725.78 105.31
  L 750.01 105.30
  Q 750.71 105.30 750.75 106.01
  L 751.46 117.94
  Q 751.52 118.95 752.05 118.09
  Z"
/>
<path fill="#f93465" d="
  M 569.52 105.30
  L 598.18 105.31
  A 0.32 0.32 0.0 0 1 598.48 105.74
  L 559.40 210.03
  A 0.32 0.32 0.0 0 1 559.10 210.24
  L 531.16 210.25
  A 0.32 0.32 0.0 0 1 530.86 210.04
  L 491.74 105.73
  A 0.32 0.32 0.0 0 1 492.04 105.30
  L 521.73 105.30
  A 0.32 0.32 0.0 0 1 522.04 105.53
  L 545.12 179.93
  A 0.32 0.32 0.0 0 0 545.73 179.93
  L 569.22 105.52
  A 0.32 0.32 0.0 0 1 569.52 105.30
  Z"
/>
<path fill="#f93465" d="
  M 987.61 183.54
  C 993.32 178.25 994.83 170.71 994.82 162.96
  Q 994.77 135.22 994.79 105.94
  Q 994.79 105.30 995.43 105.30
  L 1022.06 105.30
  Q 1022.62 105.30 1022.62 105.86
  Q 1022.65 133.89 1022.61 162.61
  C 1022.59 176.60 1018.90 189.88 1009.42 199.51
  C 997.08 212.04 979.17 215.40 962.19 211.84
  C 950.96 209.49 941.13 202.83 935.00 193.02
  C 929.19 183.74 927.23 173.12 927.24 162.17
  Q 927.26 133.47 927.23 105.87
  Q 927.23 105.31 927.80 105.31
  L 954.47 105.30
  Q 955.01 105.30 955.01 105.85
  Q 955.03 134.48 955.00 163.10
  C 955.00 173.65 958.74 185.51 970.67 187.74
  C 976.69 188.86 983.12 187.71 987.61 183.54
  Z"
/>
</svg>
